<mxfile host="app.diagrams.net" modified="2023-10-25T02:53:37.767Z" agent="Mozilla/5.0 (X11; Linux x86_64) AppleWebKit/537.36 (KHTML, like Gecko) Chrome/118.0.0.0 Safari/537.36" version="22.0.7" etag="3zS8-g8MmLTS_53YvDxr" type="github">
  <diagram name="PÃ¡gina-1" id="APF19slgnpA10nlGvX2n">
    <mxGraphModel>
      <root>
        <mxCell id="0" />
        <mxCell id="1" parent="0" />
      </root>
    </mxGraphModel>
  </diagram>
</mxfile>
